# Blender v2.93.2 OBJ File: 'wooden_table_02_4k.blend'
# www.blender.org
mtllib mesa.mtl
o wooden_table_02_Cube.003
v 0.567208 0.736872 0.347106
v 0.561302 0.736872 0.353012
v 0.567208 0.793511 0.347106
v 0.529725 0.799418 0.315529
v 0.561302 0.793511 0.353012
v -0.561302 0.736872 0.353012
v -0.567208 0.736872 0.347106
v -0.529725 0.799418 0.315529
v -0.567208 0.793511 0.347106
v -0.561302 0.793511 0.353012
v 0.561302 0.736872 -0.353012
v 0.567208 0.736872 -0.347106
v 0.529725 0.799418 -0.315529
v 0.567208 0.793511 -0.347106
v 0.561302 0.793511 -0.353012
v -0.567208 0.736872 -0.347106
v -0.561302 0.736872 -0.353012
v -0.529725 0.799418 -0.315529
v -0.561302 0.793511 -0.353012
v -0.567208 0.793511 -0.347106
v -0.561302 0.731601 0.347106
v 0.561302 0.731601 0.347106
v -0.561302 0.731601 -0.347106
v 0.561302 0.731601 -0.347106
v -0.529110 0.773347 0.314780
v 0.529110 0.773347 0.314780
v -0.529110 0.773347 -0.314780
v 0.529110 0.773347 -0.314780
v 0.529110 0.733739 0.314780
v 0.531243 0.731601 0.316922
v -0.531243 0.731601 0.316922
v -0.529110 0.733739 0.314780
v 0.531243 0.731601 -0.316922
v 0.529110 0.733739 -0.314780
v -0.531243 0.731601 -0.316922
v -0.529110 0.733739 -0.314780
v 0.561302 0.799418 0.347106
v -0.561302 0.799418 0.347106
v -0.561302 0.799418 -0.347106
v 0.561302 0.799418 -0.347106
v -0.463096 -0.000125 -0.248199
v -0.458671 0.004075 -0.247986
v -0.462882 0.004075 -0.243775
v -0.421284 0.773744 -0.202356
v -0.417073 0.773744 -0.206568
v -0.508809 0.000125 -0.248191
v -0.508670 0.004075 -0.243775
v -0.512877 0.004323 -0.247973
v -0.486929 0.773744 -0.206568
v -0.482722 0.773744 -0.202356
v -0.463089 0.000125 -0.293912
v -0.462869 0.004323 -0.297981
v -0.458671 0.004075 -0.293774
v -0.417073 0.773744 -0.268005
v -0.421284 0.773744 -0.272213
v -0.508816 0.002601 -0.293919
v -0.512877 0.007054 -0.293781
v -0.508677 0.007054 -0.297980
v -0.482722 0.773744 -0.272213
v -0.486929 0.773744 -0.268005
v -0.463096 -0.000125 0.248199
v -0.458671 0.004075 0.247986
v -0.462882 0.004075 0.243775
v -0.421284 0.773744 0.202357
v -0.417073 0.773744 0.206568
v -0.508809 0.000125 0.248191
v -0.508670 0.004075 0.243775
v -0.512877 0.004323 0.247973
v -0.486929 0.773744 0.206568
v -0.482722 0.773744 0.202357
v -0.463089 0.000125 0.293912
v -0.462869 0.004323 0.297981
v -0.458671 0.004075 0.293774
v -0.417073 0.773744 0.268005
v -0.421284 0.773744 0.272213
v -0.508816 0.002601 0.293919
v -0.512877 0.007054 0.293781
v -0.508677 0.007054 0.297981
v -0.482722 0.773744 0.272213
v -0.486929 0.773744 0.268005
v 0.463096 -0.000125 -0.248199
v 0.458671 0.004074 -0.247986
v 0.462882 0.004075 -0.243775
v 0.421284 0.773744 -0.202357
v 0.417073 0.773744 -0.206568
v 0.508809 0.000125 -0.248191
v 0.508670 0.004075 -0.243775
v 0.512877 0.004323 -0.247973
v 0.486929 0.773744 -0.206568
v 0.482722 0.773744 -0.202357
v 0.463089 0.000125 -0.293912
v 0.462869 0.004323 -0.297981
v 0.458671 0.004074 -0.293774
v 0.417073 0.773744 -0.268005
v 0.421284 0.773744 -0.272213
v 0.508816 0.002601 -0.293919
v 0.512877 0.007054 -0.293781
v 0.508677 0.007054 -0.297981
v 0.482722 0.773744 -0.272213
v 0.486929 0.773744 -0.268005
v 0.463096 -0.000125 0.248199
v 0.458671 0.004074 0.247986
v 0.462882 0.004075 0.243775
v 0.421284 0.773744 0.202356
v 0.417073 0.773744 0.206568
v 0.508809 0.000125 0.248191
v 0.508670 0.004075 0.243775
v 0.512877 0.004323 0.247973
v 0.486929 0.773744 0.206568
v 0.482722 0.773744 0.202356
v 0.463089 0.000125 0.293912
v 0.462869 0.004323 0.297981
v 0.458671 0.004074 0.293774
v 0.417073 0.773744 0.268005
v 0.421284 0.773744 0.272213
v 0.508816 0.002601 0.293919
v 0.512877 0.007054 0.293781
v 0.508677 0.007054 0.297980
v 0.482722 0.773744 0.272213
v 0.486929 0.773744 0.268005
vt 0.012161 0.862608
vt 0.401672 0.894215
vt 0.012167 0.894395
vt 0.738930 0.637544
vt 0.770625 0.007379
vt 0.770729 0.637544
vt 0.011087 0.358772
vt 0.605569 0.004670
vt 0.605569 0.358772
vt 0.633954 0.637544
vt 0.665648 0.007379
vt 0.665754 0.637544
vt 0.012159 0.749877
vt 0.401653 0.781757
vt 0.012153 0.781665
vt 0.402511 0.898447
vt 0.406213 0.894954
vt 0.401654 0.862517
vt 0.402459 0.858019
vt 0.406193 0.861757
vt 0.669880 0.006541
vt 0.666388 0.002840
vt 0.629432 0.006581
vt 0.633174 0.002846
vt 0.633932 0.007387
vt 0.774855 0.006541
vt 0.771365 0.002840
vt 0.734408 0.006581
vt 0.738150 0.002846
vt 0.738908 0.007387
vt 0.402486 0.785988
vt 0.406185 0.782501
vt 0.402477 0.745559
vt 0.406213 0.749304
vt 0.401667 0.750059
vt 0.670203 0.637542
vt 0.629261 0.637543
vt 0.012154 0.786116
vt 0.012153 0.745183
vt 0.775179 0.637542
vt 0.734237 0.637543
vt 0.012161 0.898847
vt 0.012163 0.857914
vt 0.384349 0.917072
vt 0.030379 0.939699
vt 0.030357 0.917428
vt 0.792136 0.620638
vt 0.791830 0.023428
vt 0.793540 0.024632
vt 0.816101 0.619427
vt 0.793836 0.619438
vt 0.687161 0.620638
vt 0.686854 0.023428
vt 0.012407 0.366267
vt 0.606199 0.719528
vt 0.012407 0.719528
vt 0.029151 0.915731
vt 0.385556 0.915367
vt 0.384312 0.804599
vt 0.030343 0.826979
vt 0.030336 0.804709
vt 0.029131 0.803011
vt 0.385520 0.802895
vt 0.688861 0.619438
vt 0.688564 0.024632
vt 0.711126 0.619427
vt 0.611679 0.024324
vt 0.611519 0.619791
vt 0.384741 0.727787
vt 0.029925 0.727445
vt 0.716655 0.024324
vt 0.716494 0.619791
vt 0.384711 0.840261
vt 0.029921 0.840165
vt 0.844696 0.829099
vt 0.413096 0.859196
vt 0.413096 0.829099
vt 0.844696 0.795490
vt 0.413096 0.825587
vt 0.413096 0.795490
vt 0.413096 0.761885
vt 0.844696 0.791983
vt 0.413096 0.791983
vt 0.413096 0.728276
vt 0.844696 0.758374
vt 0.413096 0.758374
vt 0.107983 0.983687
vt 0.111358 0.984368
vt 0.108613 0.987108
vt 0.082406 0.983545
vt 0.081894 0.986785
vt 0.079217 0.984090
vt 0.108067 0.957990
vt 0.108635 0.954717
vt 0.111358 0.957486
vt 0.082448 0.957934
vt 0.079161 0.957325
vt 0.081842 0.954645
vt 0.413096 0.724762
vt 0.844696 0.728276
vt 0.844696 0.761885
vt 0.844696 0.825587
vt 0.858557 0.437483
vt 0.888655 0.005879
vt 0.888655 0.437483
vt 0.892166 0.437483
vt 0.922263 0.005879
vt 0.922263 0.437483
vt 0.955869 0.437483
vt 0.925771 0.005879
vt 0.955869 0.005879
vt 0.989477 0.437483
vt 0.959380 0.005879
vt 0.989477 0.005879
vt 0.221686 0.960258
vt 0.222316 0.956836
vt 0.225061 0.959577
vt 0.196110 0.960400
vt 0.192920 0.959855
vt 0.195597 0.957160
vt 0.221771 0.985955
vt 0.225061 0.986459
vt 0.222338 0.989228
vt 0.196151 0.986011
vt 0.195545 0.989300
vt 0.192865 0.986620
vt 0.992991 0.437483
vt 0.992991 0.005879
vt 0.959380 0.437483
vt 0.892166 0.005879
vt 0.991346 0.441373
vt 0.961249 0.872978
vt 0.961249 0.441373
vt 0.957737 0.441373
vt 0.927640 0.872978
vt 0.927640 0.441373
vt 0.894035 0.441373
vt 0.924132 0.872978
vt 0.894035 0.872978
vt 0.860426 0.441373
vt 0.890524 0.872978
vt 0.860426 0.872978
vt 0.054205 0.960486
vt 0.054834 0.957064
vt 0.057579 0.959805
vt 0.028628 0.960627
vt 0.025438 0.960082
vt 0.028115 0.957387
vt 0.054289 0.986182
vt 0.057579 0.986686
vt 0.054856 0.989456
vt 0.028669 0.986238
vt 0.028063 0.989527
vt 0.025383 0.986847
vt 0.856912 0.441373
vt 0.856912 0.872978
vt 0.890524 0.441373
vt 0.957737 0.872978
vt 0.414117 0.893331
vt 0.845719 0.863233
vt 0.845719 0.893331
vt 0.414117 0.926939
vt 0.845719 0.896842
vt 0.845719 0.926939
vt 0.845719 0.960544
vt 0.414117 0.930447
vt 0.845719 0.930447
vt 0.845719 0.994153
vt 0.414117 0.964055
vt 0.845719 0.964055
vt 0.163985 0.985789
vt 0.167323 0.986440
vt 0.164631 0.989129
vt 0.138369 0.985797
vt 0.137835 0.989092
vt 0.135147 0.986348
vt 0.164045 0.960168
vt 0.164650 0.956930
vt 0.167323 0.959689
vt 0.138385 0.960134
vt 0.135092 0.959522
vt 0.137781 0.956836
vt 0.845719 0.997667
vt 0.414117 0.994153
vt 0.414117 0.960544
vt 0.414117 0.896842
vt 0.011087 0.004670
vt 0.384371 0.939343
vt 0.815803 0.024621
vt 0.606199 0.366267
vt 0.384318 0.826869
vt 0.710827 0.024621
vt 0.844696 0.859196
vt 0.844696 0.724763
vt 0.858557 0.005879
vt 0.925771 0.437483
vt 0.991346 0.872978
vt 0.924132 0.441373
vt 0.414117 0.863233
vt 0.414117 0.997667
vn 0.9992 -0.0266 -0.0290
vn 1.0000 -0.0011 0.0010
vn 1.0000 0.0019 0.0017
vn -0.0181 -0.0162 -0.9997
vn 0.0014 -0.0015 -1.0000
vn 0.0017 0.0019 -1.0000
vn 0.0000 1.0000 0.0000
vn 0.0181 -0.0162 0.9997
vn -0.0014 -0.0015 1.0000
vn -0.0017 0.0019 1.0000
vn -0.9992 -0.0266 0.0290
vn -1.0000 -0.0011 -0.0010
vn -1.0000 0.0019 -0.0017
vn 0.0017 -1.0000 0.0017
vn 0.5409 0.4920 0.6822
vn 0.0020 1.0000 0.0020
vn -0.0018 -1.0000 0.0018
vn -0.0019 1.0000 0.0019
vn -0.6822 0.4920 0.5409
vn 0.0018 -1.0000 -0.0018
vn 0.0019 1.0000 -0.0019
vn 0.6822 0.4920 -0.5409
vn -0.0017 -1.0000 -0.0017
vn -0.0020 1.0000 -0.0020
vn -0.5409 0.4920 -0.6822
vn -0.9999 -0.0135 0.0000
vn -1.0000 0.0000 0.0000
vn -0.9999 -0.0152 -0.0000
vn 0.0045 -1.0000 0.0046
vn -0.0045 -1.0000 0.0045
vn 0.0000 -0.0143 0.9999
vn 0.0000 0.0000 1.0000
vn 0.0000 -0.0153 0.9999
vn -0.0045 -1.0000 -0.0046
vn 0.0045 -1.0000 -0.0045
vn -0.0000 -1.0000 0.0000
vn 0.9999 -0.0135 0.0000
vn 1.0000 0.0000 0.0000
vn 0.9999 -0.0151 0.0000
vn -0.0000 -0.0153 -0.9999
vn -0.0000 -0.0143 -0.9999
vn -0.0000 0.0000 -1.0000
vn 0.9985 -0.0535 -0.0126
vn 0.9987 -0.0504 0.0007
vn 0.9984 -0.0567 -0.0010
vn -0.0122 0.0339 -0.9994
vn 0.0010 0.0306 -0.9995
vn 0.0013 0.0365 -0.9993
vn -0.9996 0.0047 -0.0266
vn -0.9992 0.0346 -0.0206
vn -0.9993 0.0381 0.0015
vn -0.0269 -0.0771 0.9967
vn -0.0127 -0.0533 0.9985
vn -0.0004 -0.0571 0.9984
vn 0.0637 -0.9960 0.0620
vn -0.1003 -0.9941 0.0404
vn 0.0411 -0.9942 -0.0995
vn -0.1231 -0.9850 -0.1213
vn 0.0140 -0.0545 0.9984
vn -0.9994 0.0329 0.0146
vn 0.0146 0.0327 -0.9994
vn 0.9966 -0.0781 0.0260
vn 0.9985 -0.0535 0.0126
vn 0.9984 -0.0574 0.0004
vn -0.0266 0.0044 0.9996
vn -0.0122 0.0340 0.9993
vn 0.0007 0.0372 0.9993
vn -0.7492 0.0116 -0.6622
vn -0.9992 0.0344 0.0206
vn -0.9994 0.0329 -0.0146
vn 0.6654 -0.0384 -0.7455
vn -0.0127 -0.0533 -0.9985
vn 0.0140 -0.0546 -0.9984
vn 0.0620 -0.9960 -0.0637
vn -0.0996 -0.9942 -0.0411
vn -0.6856 -0.5072 -0.5223
vn 0.0404 -0.9941 0.1003
vn -0.1213 -0.9850 0.1231
vn -0.5597 -0.4377 0.7037
vn 0.9985 -0.0540 -0.0000
vn 0.0146 0.0327 0.9994
vn -0.9966 -0.0781 -0.0260
vn -0.9985 -0.0535 -0.0126
vn -0.9984 -0.0574 -0.0004
vn 0.0266 0.0044 -0.9996
vn 0.0122 0.0339 -0.9994
vn -0.0007 0.0372 -0.9993
vn 0.7492 0.0116 0.6622
vn 0.9992 0.0344 -0.0206
vn 0.9994 0.0329 0.0146
vn -0.6654 -0.0384 0.7455
vn 0.0127 -0.0533 0.9985
vn -0.0140 -0.0547 0.9984
vn -0.0620 -0.9960 0.0637
vn 0.0996 -0.9942 0.0411
vn 0.6856 -0.5072 0.5223
vn -0.0404 -0.9941 -0.1003
vn 0.1213 -0.9850 -0.1231
vn 0.5597 -0.4377 -0.7037
vn -0.9985 -0.0540 0.0000
vn -0.0146 0.0327 -0.9994
vn -0.9985 -0.0535 0.0126
vn -0.9987 -0.0504 -0.0007
vn -0.9984 -0.0567 0.0010
vn 0.0122 0.0339 0.9994
vn -0.0010 0.0306 0.9995
vn -0.0013 0.0365 0.9993
vn 0.9996 0.0047 0.0266
vn 0.9992 0.0344 0.0206
vn 0.9993 0.0381 -0.0015
vn 0.0269 -0.0771 -0.9967
vn 0.0127 -0.0533 -0.9985
vn 0.0004 -0.0571 -0.9984
vn -0.0637 -0.9960 -0.0620
vn 0.1003 -0.9941 -0.0404
vn -0.0411 -0.9942 0.0995
vn 0.1231 -0.9850 0.1213
vn -0.0140 -0.0545 -0.9984
vn 0.9994 0.0329 -0.0146
vn -0.0146 0.0327 0.9994
vn 0.9985 -0.0541 0.0000
vn -0.9985 -0.0541 -0.0000
usemtl wooden_table_02
s 1
f 14/1/1 1/2/2 12/3/3
f 19/4/4 11/5/5 17/6/6
f 18/7/7 4/8/7 13/9/7
f 5/10/8 6/11/9 2/12/10
f 9/13/11 16/14/12 7/15/13
f 22/16/14 1/2/2 2/17/10
f 3/18/15 37/19/16 5/20/8
f 21/21/17 6/11/9 7/22/13
f 38/23/18 9/24/11 10/25/19
f 24/26/20 11/5/5 12/27/3
f 40/28/21 14/29/1 15/30/22
f 23/31/23 16/14/12 17/32/6
f 39/33/24 19/34/4 20/35/25
f 22/36/14 6/11/9 21/21/17
f 3/18/15 2/17/10 1/2/2
f 38/23/18 5/10/8 37/37/16
f 7/22/13 10/25/19 9/24/11
f 21/38/17 16/14/12 23/31/23
f 39/33/24 9/13/11 38/39/18
f 17/32/6 20/35/25 19/34/4
f 23/40/23 11/5/5 24/26/20
f 40/28/21 19/4/4 39/41/24
f 12/27/3 15/30/22 14/29/1
f 24/42/20 1/2/2 22/16/14
f 37/19/16 14/1/1 40/43/21
f 29/44/26 28/45/27 34/46/28
f 35/47/29 24/26/20 33/48/30
f 34/49/31 27/50/32 36/51/33
f 30/52/34 21/21/17 31/53/35
f 27/54/36 26/55/36 25/56/36
f 33/57/30 22/16/14 30/58/34
f 36/59/37 25/60/38 32/61/39
f 31/62/35 23/31/23 35/63/29
f 29/64/40 31/53/35 32/65/41
f 32/61/39 35/63/29 36/59/37
f 36/51/33 33/48/30 34/49/31
f 34/46/28 30/58/34 29/44/26
f 32/65/41 26/66/42 29/64/40
f 8/67/7 37/37/16 4/68/7
f 18/69/7 38/39/18 8/70/7
f 13/71/7 39/41/24 18/72/7
f 4/73/7 40/43/21 13/74/7
f 54/75/43 42/76/44 53/77/45
f 59/78/46 52/79/47 58/80/48
f 48/81/49 60/82/50 57/83/51
f 43/84/52 50/85/53 47/86/54
f 41/87/55 42/88/44 43/89/52
f 46/90/56 47/91/54 48/92/49
f 51/93/57 52/94/47 53/95/45
f 56/96/58 57/97/51 58/98/48
f 41/87/55 47/91/54 46/90/56
f 42/99/44 44/100/59 43/84/52
f 49/101/60 47/86/54 50/85/53
f 56/96/58 48/92/49 57/97/51
f 58/80/48 60/82/50 59/78/46
f 56/96/58 52/94/47 51/93/57
f 53/77/45 55/102/61 54/75/43
f 41/87/55 53/95/45 42/88/44
f 46/90/56 51/93/57 41/87/55
f 62/103/62 74/104/63 73/105/64
f 72/106/65 79/107/66 78/108/67
f 68/109/68 80/110/69 69/111/70
f 63/112/71 70/113/72 64/114/73
f 61/115/74 63/116/71 62/117/62
f 66/118/75 68/119/68 67/120/76
f 71/121/77 73/122/64 72/123/65
f 76/124/78 78/125/67 77/126/79
f 67/120/76 61/115/74 66/118/75
f 62/127/62 64/114/73 65/128/80
f 69/111/70 67/129/76 68/109/68
f 76/124/78 68/119/68 66/118/75
f 80/110/69 78/108/67 79/107/66
f 72/123/65 76/124/78 71/121/77
f 75/130/81 73/105/64 74/104/63
f 61/115/74 73/122/64 71/121/77
f 66/118/75 71/121/77 76/124/78
f 82/131/82 94/132/83 93/133/84
f 92/134/85 99/135/86 98/136/87
f 88/137/88 100/138/89 89/139/90
f 83/140/91 90/141/92 84/142/93
f 81/143/94 83/144/91 82/145/82
f 86/146/95 88/147/88 87/148/96
f 91/149/97 93/150/84 92/151/85
f 96/152/98 98/153/87 97/154/99
f 87/148/96 81/143/94 86/146/95
f 82/155/82 84/142/93 85/156/100
f 89/139/90 87/157/96 88/137/88
f 96/152/98 88/147/88 86/146/95
f 100/138/89 98/136/87 99/135/86
f 92/151/85 96/152/98 91/149/97
f 95/158/101 93/133/84 94/132/83
f 81/143/94 93/150/84 91/149/97
f 86/146/95 91/149/97 96/152/98
f 114/159/102 102/160/103 113/161/104
f 119/162/105 112/163/106 118/164/107
f 108/165/108 120/166/109 117/167/110
f 103/168/111 110/169/112 107/170/113
f 101/171/114 102/172/103 103/173/111
f 106/174/115 107/175/113 108/176/108
f 111/177/116 112/178/106 113/179/104
f 116/180/117 117/181/110 118/182/107
f 101/171/114 107/175/113 106/174/115
f 102/183/103 104/184/118 103/168/111
f 109/185/119 107/170/113 110/169/112
f 116/180/117 108/176/108 117/181/110
f 118/164/107 120/166/109 119/162/105
f 116/180/117 112/178/106 111/177/116
f 113/161/104 115/186/120 114/159/102
f 101/171/114 113/179/104 102/172/103
f 106/174/115 111/177/116 101/171/114
f 14/1/1 3/18/15 1/2/2
f 19/4/4 15/30/22 11/5/5
f 18/7/7 8/187/7 4/8/7
f 5/10/8 10/25/19 6/11/9
f 9/13/11 20/35/25 16/14/12
f 22/36/14 2/12/10 6/11/9
f 3/18/15 5/20/8 2/17/10
f 38/23/18 10/25/19 5/10/8
f 7/22/13 6/11/9 10/25/19
f 21/38/17 7/15/13 16/14/12
f 39/33/24 20/35/25 9/13/11
f 17/32/6 16/14/12 20/35/25
f 23/40/23 17/6/6 11/5/5
f 40/28/21 15/30/22 19/4/4
f 12/27/3 11/5/5 15/30/22
f 24/42/20 12/3/3 1/2/2
f 37/19/16 3/18/15 14/1/1
f 29/44/26 26/188/27 28/45/27
f 35/47/29 23/40/23 24/26/20
f 34/49/31 28/189/32 27/50/32
f 30/52/34 22/36/14 21/21/17
f 27/54/36 28/190/36 26/55/36
f 33/57/30 24/42/20 22/16/14
f 36/59/37 27/191/38 25/60/38
f 31/62/35 21/38/17 23/31/23
f 29/64/40 30/52/34 31/53/35
f 32/61/39 31/62/35 35/63/29
f 36/51/33 35/47/29 33/48/30
f 34/46/28 33/57/30 30/58/34
f 32/65/41 25/192/42 26/66/42
f 8/67/7 38/23/18 37/37/16
f 18/69/7 39/33/24 38/39/18
f 13/71/7 40/28/21 39/41/24
f 4/73/7 37/19/16 40/43/21
f 54/75/43 45/193/121 42/76/44
f 59/78/46 55/102/61 52/79/47
f 48/81/49 49/101/60 60/82/50
f 43/84/52 44/100/59 50/85/53
f 41/87/55 43/89/52 47/91/54
f 42/99/44 45/194/121 44/100/59
f 49/101/60 48/81/49 47/86/54
f 56/96/58 46/90/56 48/92/49
f 58/80/48 57/83/51 60/82/50
f 56/96/58 58/98/48 52/94/47
f 53/77/45 52/79/47 55/102/61
f 41/87/55 51/93/57 53/95/45
f 46/90/56 56/96/58 51/93/57
f 62/103/62 65/195/80 74/104/63
f 72/106/65 75/130/81 79/107/66
f 68/109/68 77/196/79 80/110/69
f 63/112/71 67/129/76 70/113/72
f 67/120/76 63/116/71 61/115/74
f 62/127/62 63/112/71 64/114/73
f 69/111/70 70/113/72 67/129/76
f 76/124/78 77/126/79 68/119/68
f 80/110/69 77/196/79 78/108/67
f 72/123/65 78/125/67 76/124/78
f 75/130/81 72/106/65 73/105/64
f 61/115/74 62/117/62 73/122/64
f 66/118/75 61/115/74 71/121/77
f 82/131/82 85/197/100 94/132/83
f 92/134/85 95/158/101 99/135/86
f 88/137/88 97/198/99 100/138/89
f 83/140/91 87/157/96 90/141/92
f 87/148/96 83/144/91 81/143/94
f 82/155/82 83/140/91 84/142/93
f 89/139/90 90/141/92 87/157/96
f 96/152/98 97/154/99 88/147/88
f 100/138/89 97/198/99 98/136/87
f 92/151/85 98/153/87 96/152/98
f 95/158/101 92/134/85 93/133/84
f 81/143/94 82/145/82 93/150/84
f 86/146/95 81/143/94 91/149/97
f 114/159/102 105/199/122 102/160/103
f 119/162/105 115/186/120 112/163/106
f 108/165/108 109/185/119 120/166/109
f 103/168/111 104/184/118 110/169/112
f 101/171/114 103/173/111 107/175/113
f 102/183/103 105/200/122 104/184/118
f 109/185/119 108/165/108 107/170/113
f 116/180/117 106/174/115 108/176/108
f 118/164/107 117/167/110 120/166/109
f 116/180/117 118/182/107 112/178/106
f 113/161/104 112/163/106 115/186/120
f 101/171/114 111/177/116 113/179/104
f 106/174/115 116/180/117 111/177/116
